<mxfile host="app.diagrams.net" agent="Mozilla/5.0 (Windows NT 10.0; Win64; x64) AppleWebKit/537.36 (KHTML, like Gecko) Chrome/131.0.0.0 Safari/537.36" version="24.8.8">
  <diagram name="Página-1" id="jZbVQAWXfAkG8FvwcBjm">
    <mxGraphModel dx="1434" dy="738" grid="1" gridSize="10" guides="1" tooltips="1" connect="1" arrows="1" fold="1" page="1" pageScale="1" pageWidth="827" pageHeight="1169" math="0" shadow="0">
      <root>
        <mxCell id="0" />
        <mxCell id="1" parent="0" />
        <mxCell id="XZEMBFw_VbSvcfZwqEut-19" style="edgeStyle=orthogonalEdgeStyle;rounded=0;orthogonalLoop=1;jettySize=auto;html=1;exitX=0;exitY=1;exitDx=0;exitDy=0;" edge="1" parent="1" source="XZEMBFw_VbSvcfZwqEut-1">
          <mxGeometry relative="1" as="geometry">
            <mxPoint x="500" y="120" as="targetPoint" />
          </mxGeometry>
        </mxCell>
        <mxCell id="XZEMBFw_VbSvcfZwqEut-1" value="Usuario" style="whiteSpace=wrap;html=1;align=center;" vertex="1" parent="1">
          <mxGeometry x="490" y="90" width="100" height="40" as="geometry" />
        </mxCell>
        <mxCell id="XZEMBFw_VbSvcfZwqEut-2" value="Nome" style="ellipse;whiteSpace=wrap;html=1;align=center;" vertex="1" parent="1">
          <mxGeometry x="470" y="10" width="100" height="40" as="geometry" />
        </mxCell>
        <mxCell id="XZEMBFw_VbSvcfZwqEut-3" value="ID_Usuario" style="ellipse;whiteSpace=wrap;html=1;align=center;fontStyle=4;" vertex="1" parent="1">
          <mxGeometry x="350" y="20" width="100" height="40" as="geometry" />
        </mxCell>
        <mxCell id="XZEMBFw_VbSvcfZwqEut-5" value="Email" style="ellipse;whiteSpace=wrap;html=1;align=center;" vertex="1" parent="1">
          <mxGeometry x="610" y="10" width="100" height="40" as="geometry" />
        </mxCell>
        <mxCell id="XZEMBFw_VbSvcfZwqEut-6" value="Senha" style="ellipse;whiteSpace=wrap;html=1;align=center;" vertex="1" parent="1">
          <mxGeometry x="650" y="60" width="100" height="40" as="geometry" />
        </mxCell>
        <mxCell id="XZEMBFw_VbSvcfZwqEut-10" value="DD/MM/AA" style="ellipse;whiteSpace=wrap;html=1;align=center;" vertex="1" parent="1">
          <mxGeometry x="330" y="70" width="100" height="40" as="geometry" />
        </mxCell>
        <mxCell id="XZEMBFw_VbSvcfZwqEut-20" value="" style="endArrow=none;html=1;rounded=0;exitX=0;exitY=1;exitDx=0;exitDy=0;" edge="1" parent="1" source="XZEMBFw_VbSvcfZwqEut-1">
          <mxGeometry relative="1" as="geometry">
            <mxPoint x="370" y="420" as="sourcePoint" />
            <mxPoint x="370" y="220" as="targetPoint" />
          </mxGeometry>
        </mxCell>
        <mxCell id="XZEMBFw_VbSvcfZwqEut-21" value="1" style="resizable=0;html=1;whiteSpace=wrap;align=right;verticalAlign=bottom;" connectable="0" vertex="1" parent="XZEMBFw_VbSvcfZwqEut-20">
          <mxGeometry x="1" relative="1" as="geometry" />
        </mxCell>
        <mxCell id="XZEMBFw_VbSvcfZwqEut-28" value="saldo" style="ellipse;whiteSpace=wrap;html=1;align=center;" vertex="1" parent="1">
          <mxGeometry y="380" width="100" height="40" as="geometry" />
        </mxCell>
        <mxCell id="XZEMBFw_VbSvcfZwqEut-30" value="ID_Usuario" style="ellipse;whiteSpace=wrap;html=1;align=center;fontStyle=4;" vertex="1" parent="1">
          <mxGeometry x="120" y="240" width="100" height="40" as="geometry" />
        </mxCell>
        <mxCell id="XZEMBFw_VbSvcfZwqEut-32" value="" style="shape=link;html=1;rounded=0;exitX=1;exitY=0;exitDx=0;exitDy=0;" edge="1" parent="1" target="XZEMBFw_VbSvcfZwqEut-35">
          <mxGeometry relative="1" as="geometry">
            <mxPoint x="190" y="340" as="sourcePoint" />
            <mxPoint x="290" y="280" as="targetPoint" />
          </mxGeometry>
        </mxCell>
        <mxCell id="XZEMBFw_VbSvcfZwqEut-33" value="1" style="resizable=0;html=1;whiteSpace=wrap;align=right;verticalAlign=bottom;" connectable="0" vertex="1" parent="XZEMBFw_VbSvcfZwqEut-32">
          <mxGeometry x="1" relative="1" as="geometry">
            <mxPoint x="-10" y="10" as="offset" />
          </mxGeometry>
        </mxCell>
        <mxCell id="XZEMBFw_VbSvcfZwqEut-34" value="Wallet" style="shape=ext;margin=3;double=1;whiteSpace=wrap;html=1;align=center;" vertex="1" parent="1">
          <mxGeometry x="90" y="340" width="100" height="40" as="geometry" />
        </mxCell>
        <mxCell id="XZEMBFw_VbSvcfZwqEut-35" value="Possui" style="shape=rhombus;double=1;perimeter=rhombusPerimeter;whiteSpace=wrap;html=1;align=center;" vertex="1" parent="1">
          <mxGeometry x="260" y="200" width="120" height="60" as="geometry" />
        </mxCell>
        <mxCell id="XZEMBFw_VbSvcfZwqEut-36" value="ID_Wallet" style="ellipse;whiteSpace=wrap;html=1;align=center;fontStyle=4;" vertex="1" parent="1">
          <mxGeometry x="20" y="270" width="100" height="40" as="geometry" />
        </mxCell>
        <mxCell id="XZEMBFw_VbSvcfZwqEut-37" value="" style="endArrow=none;html=1;rounded=0;exitX=0.75;exitY=1;exitDx=0;exitDy=0;" edge="1" parent="1" source="XZEMBFw_VbSvcfZwqEut-34">
          <mxGeometry relative="1" as="geometry">
            <mxPoint x="330" y="380" as="sourcePoint" />
            <mxPoint x="120" y="550" as="targetPoint" />
          </mxGeometry>
        </mxCell>
        <mxCell id="XZEMBFw_VbSvcfZwqEut-38" value="1" style="resizable=0;html=1;whiteSpace=wrap;align=right;verticalAlign=bottom;" connectable="0" vertex="1" parent="XZEMBFw_VbSvcfZwqEut-37">
          <mxGeometry x="1" relative="1" as="geometry" />
        </mxCell>
        <mxCell id="XZEMBFw_VbSvcfZwqEut-39" value="Registra" style="shape=rhombus;double=1;perimeter=rhombusPerimeter;whiteSpace=wrap;html=1;align=center;" vertex="1" parent="1">
          <mxGeometry x="30" y="540" width="120" height="60" as="geometry" />
        </mxCell>
        <mxCell id="XZEMBFw_VbSvcfZwqEut-40" value="" style="shape=link;html=1;rounded=0;entryX=0.5;entryY=1;entryDx=0;entryDy=0;exitX=0.25;exitY=0;exitDx=0;exitDy=0;" edge="1" parent="1" source="XZEMBFw_VbSvcfZwqEut-43" target="XZEMBFw_VbSvcfZwqEut-39">
          <mxGeometry relative="1" as="geometry">
            <mxPoint x="90" y="750" as="sourcePoint" />
            <mxPoint x="490" y="680" as="targetPoint" />
          </mxGeometry>
        </mxCell>
        <mxCell id="XZEMBFw_VbSvcfZwqEut-41" value="N" style="resizable=0;html=1;whiteSpace=wrap;align=right;verticalAlign=bottom;" connectable="0" vertex="1" parent="XZEMBFw_VbSvcfZwqEut-40">
          <mxGeometry x="1" relative="1" as="geometry">
            <mxPoint x="40" y="10" as="offset" />
          </mxGeometry>
        </mxCell>
        <mxCell id="XZEMBFw_VbSvcfZwqEut-43" value="Historico de transaçao" style="shape=ext;margin=3;double=1;whiteSpace=wrap;html=1;align=center;" vertex="1" parent="1">
          <mxGeometry x="140" y="750" width="100" height="40" as="geometry" />
        </mxCell>
        <mxCell id="XZEMBFw_VbSvcfZwqEut-44" value="ID_Wallet" style="ellipse;whiteSpace=wrap;html=1;align=center;fontStyle=4;" vertex="1" parent="1">
          <mxGeometry x="270" y="840" width="100" height="40" as="geometry" />
        </mxCell>
        <mxCell id="XZEMBFw_VbSvcfZwqEut-45" value="ID_Transaçao" style="ellipse;whiteSpace=wrap;html=1;align=center;fontStyle=4;" vertex="1" parent="1">
          <mxGeometry x="300" y="770" width="100" height="40" as="geometry" />
        </mxCell>
        <mxCell id="XZEMBFw_VbSvcfZwqEut-46" value="Tipo_transaçao" style="ellipse;whiteSpace=wrap;html=1;align=center;" vertex="1" parent="1">
          <mxGeometry x="10" y="750" width="100" height="40" as="geometry" />
        </mxCell>
        <mxCell id="XZEMBFw_VbSvcfZwqEut-47" value="Valor" style="ellipse;whiteSpace=wrap;html=1;align=center;" vertex="1" parent="1">
          <mxGeometry x="150" y="850" width="100" height="40" as="geometry" />
        </mxCell>
        <mxCell id="XZEMBFw_VbSvcfZwqEut-48" value="Data_hora" style="ellipse;whiteSpace=wrap;html=1;align=center;" vertex="1" parent="1">
          <mxGeometry y="820" width="100" height="40" as="geometry" />
        </mxCell>
        <mxCell id="XZEMBFw_VbSvcfZwqEut-57" value="" style="endArrow=none;html=1;rounded=0;entryX=0.04;entryY=0.325;entryDx=0;entryDy=0;entryPerimeter=0;exitX=1;exitY=0.5;exitDx=0;exitDy=0;" edge="1" parent="1" source="XZEMBFw_VbSvcfZwqEut-43" target="XZEMBFw_VbSvcfZwqEut-45">
          <mxGeometry relative="1" as="geometry">
            <mxPoint x="330" y="580" as="sourcePoint" />
            <mxPoint x="490" y="580" as="targetPoint" />
          </mxGeometry>
        </mxCell>
        <mxCell id="XZEMBFw_VbSvcfZwqEut-58" value="" style="endArrow=none;html=1;rounded=0;entryX=0;entryY=0;entryDx=0;entryDy=0;exitX=1;exitY=1;exitDx=0;exitDy=0;" edge="1" parent="1" source="XZEMBFw_VbSvcfZwqEut-43" target="XZEMBFw_VbSvcfZwqEut-44">
          <mxGeometry relative="1" as="geometry">
            <mxPoint x="250" y="780" as="sourcePoint" />
            <mxPoint x="314" y="793" as="targetPoint" />
          </mxGeometry>
        </mxCell>
        <mxCell id="XZEMBFw_VbSvcfZwqEut-59" value="" style="endArrow=none;html=1;rounded=0;entryX=0.5;entryY=0;entryDx=0;entryDy=0;exitX=0.5;exitY=1;exitDx=0;exitDy=0;" edge="1" parent="1" source="XZEMBFw_VbSvcfZwqEut-43" target="XZEMBFw_VbSvcfZwqEut-47">
          <mxGeometry relative="1" as="geometry">
            <mxPoint x="250" y="800" as="sourcePoint" />
            <mxPoint x="295" y="856" as="targetPoint" />
          </mxGeometry>
        </mxCell>
        <mxCell id="XZEMBFw_VbSvcfZwqEut-60" value="" style="endArrow=none;html=1;rounded=0;entryX=0.98;entryY=0.35;entryDx=0;entryDy=0;exitX=0.25;exitY=1;exitDx=0;exitDy=0;entryPerimeter=0;" edge="1" parent="1" source="XZEMBFw_VbSvcfZwqEut-43" target="XZEMBFw_VbSvcfZwqEut-48">
          <mxGeometry relative="1" as="geometry">
            <mxPoint x="200" y="800" as="sourcePoint" />
            <mxPoint x="210" y="860" as="targetPoint" />
          </mxGeometry>
        </mxCell>
        <mxCell id="XZEMBFw_VbSvcfZwqEut-61" value="" style="endArrow=none;html=1;rounded=0;entryX=1;entryY=0.5;entryDx=0;entryDy=0;exitX=0;exitY=0.5;exitDx=0;exitDy=0;" edge="1" parent="1" source="XZEMBFw_VbSvcfZwqEut-43" target="XZEMBFw_VbSvcfZwqEut-46">
          <mxGeometry relative="1" as="geometry">
            <mxPoint x="175" y="800" as="sourcePoint" />
            <mxPoint x="108" y="844" as="targetPoint" />
          </mxGeometry>
        </mxCell>
        <mxCell id="XZEMBFw_VbSvcfZwqEut-62" value="" style="endArrow=none;html=1;rounded=0;exitX=0.4;exitY=1.075;exitDx=0;exitDy=0;exitPerimeter=0;" edge="1" parent="1" source="XZEMBFw_VbSvcfZwqEut-30">
          <mxGeometry relative="1" as="geometry">
            <mxPoint x="330" y="280" as="sourcePoint" />
            <mxPoint x="151" y="340" as="targetPoint" />
          </mxGeometry>
        </mxCell>
        <mxCell id="XZEMBFw_VbSvcfZwqEut-64" value="" style="endArrow=none;html=1;rounded=0;exitX=0.57;exitY=1.075;exitDx=0;exitDy=0;exitPerimeter=0;entryX=0.25;entryY=0;entryDx=0;entryDy=0;" edge="1" parent="1" source="XZEMBFw_VbSvcfZwqEut-36" target="XZEMBFw_VbSvcfZwqEut-34">
          <mxGeometry relative="1" as="geometry">
            <mxPoint x="170" y="293" as="sourcePoint" />
            <mxPoint x="161" y="346" as="targetPoint" />
          </mxGeometry>
        </mxCell>
        <mxCell id="XZEMBFw_VbSvcfZwqEut-65" value="" style="endArrow=none;html=1;rounded=0;exitX=1;exitY=0;exitDx=0;exitDy=0;entryX=0.19;entryY=1.125;entryDx=0;entryDy=0;entryPerimeter=0;" edge="1" parent="1" source="XZEMBFw_VbSvcfZwqEut-28" target="XZEMBFw_VbSvcfZwqEut-34">
          <mxGeometry relative="1" as="geometry">
            <mxPoint x="87" y="323" as="sourcePoint" />
            <mxPoint x="125" y="350" as="targetPoint" />
          </mxGeometry>
        </mxCell>
        <mxCell id="XZEMBFw_VbSvcfZwqEut-66" value="" style="endArrow=none;html=1;rounded=0;exitX=0;exitY=0.5;exitDx=0;exitDy=0;entryX=1;entryY=1;entryDx=0;entryDy=0;" edge="1" parent="1" source="XZEMBFw_VbSvcfZwqEut-1" target="XZEMBFw_VbSvcfZwqEut-3">
          <mxGeometry relative="1" as="geometry">
            <mxPoint x="170" y="293" as="sourcePoint" />
            <mxPoint x="161" y="350" as="targetPoint" />
          </mxGeometry>
        </mxCell>
        <mxCell id="XZEMBFw_VbSvcfZwqEut-67" value="" style="endArrow=none;html=1;rounded=0;entryX=1;entryY=0.5;entryDx=0;entryDy=0;exitX=0;exitY=0.75;exitDx=0;exitDy=0;" edge="1" parent="1" source="XZEMBFw_VbSvcfZwqEut-1" target="XZEMBFw_VbSvcfZwqEut-10">
          <mxGeometry relative="1" as="geometry">
            <mxPoint x="500" y="100" as="sourcePoint" />
            <mxPoint x="445" y="64" as="targetPoint" />
          </mxGeometry>
        </mxCell>
        <mxCell id="XZEMBFw_VbSvcfZwqEut-68" value="" style="endArrow=none;html=1;rounded=0;exitX=0.38;exitY=0.1;exitDx=0;exitDy=0;entryX=0.5;entryY=1;entryDx=0;entryDy=0;exitPerimeter=0;" edge="1" parent="1" source="XZEMBFw_VbSvcfZwqEut-1" target="XZEMBFw_VbSvcfZwqEut-2">
          <mxGeometry relative="1" as="geometry">
            <mxPoint x="510" y="100" as="sourcePoint" />
            <mxPoint x="445" y="64" as="targetPoint" />
          </mxGeometry>
        </mxCell>
        <mxCell id="XZEMBFw_VbSvcfZwqEut-69" value="" style="endArrow=none;html=1;rounded=0;exitX=0.21;exitY=1.025;exitDx=0;exitDy=0;entryX=0.69;entryY=0.05;entryDx=0;entryDy=0;exitPerimeter=0;entryPerimeter=0;" edge="1" parent="1" source="XZEMBFw_VbSvcfZwqEut-5" target="XZEMBFw_VbSvcfZwqEut-1">
          <mxGeometry relative="1" as="geometry">
            <mxPoint x="548" y="84" as="sourcePoint" />
            <mxPoint x="530" y="60" as="targetPoint" />
          </mxGeometry>
        </mxCell>
        <mxCell id="XZEMBFw_VbSvcfZwqEut-70" value="" style="endArrow=none;html=1;rounded=0;exitX=0;exitY=0.5;exitDx=0;exitDy=0;entryX=1;entryY=0.5;entryDx=0;entryDy=0;" edge="1" parent="1" source="XZEMBFw_VbSvcfZwqEut-6" target="XZEMBFw_VbSvcfZwqEut-1">
          <mxGeometry relative="1" as="geometry">
            <mxPoint x="641" y="61" as="sourcePoint" />
            <mxPoint x="579" y="82" as="targetPoint" />
          </mxGeometry>
        </mxCell>
        <mxCell id="XZEMBFw_VbSvcfZwqEut-71" value="" style="endArrow=none;html=1;rounded=0;exitX=0.43;exitY=1.075;exitDx=0;exitDy=0;exitPerimeter=0;" edge="1" parent="1" source="XZEMBFw_VbSvcfZwqEut-1">
          <mxGeometry relative="1" as="geometry">
            <mxPoint x="330" y="380" as="sourcePoint" />
            <mxPoint x="543" y="280" as="targetPoint" />
          </mxGeometry>
        </mxCell>
        <mxCell id="XZEMBFw_VbSvcfZwqEut-72" value="1" style="resizable=0;html=1;whiteSpace=wrap;align=right;verticalAlign=bottom;" connectable="0" vertex="1" parent="XZEMBFw_VbSvcfZwqEut-71">
          <mxGeometry x="1" relative="1" as="geometry" />
        </mxCell>
        <mxCell id="XZEMBFw_VbSvcfZwqEut-74" value="Realiza" style="shape=rhombus;double=1;perimeter=rhombusPerimeter;whiteSpace=wrap;html=1;align=center;" vertex="1" parent="1">
          <mxGeometry x="480" y="280" width="120" height="60" as="geometry" />
        </mxCell>
        <mxCell id="XZEMBFw_VbSvcfZwqEut-77" value="" style="shape=link;html=1;rounded=0;entryX=0.5;entryY=1;entryDx=0;entryDy=0;" edge="1" parent="1" target="XZEMBFw_VbSvcfZwqEut-74">
          <mxGeometry relative="1" as="geometry">
            <mxPoint x="520" y="460" as="sourcePoint" />
            <mxPoint x="490" y="380" as="targetPoint" />
          </mxGeometry>
        </mxCell>
        <mxCell id="XZEMBFw_VbSvcfZwqEut-78" value="N" style="resizable=0;html=1;whiteSpace=wrap;align=right;verticalAlign=bottom;" connectable="0" vertex="1" parent="XZEMBFw_VbSvcfZwqEut-77">
          <mxGeometry x="1" relative="1" as="geometry">
            <mxPoint x="-10" y="10" as="offset" />
          </mxGeometry>
        </mxCell>
        <mxCell id="XZEMBFw_VbSvcfZwqEut-79" value="Apostas" style="shape=ext;margin=3;double=1;whiteSpace=wrap;html=1;align=center;" vertex="1" parent="1">
          <mxGeometry x="470" y="460" width="100" height="40" as="geometry" />
        </mxCell>
        <mxCell id="XZEMBFw_VbSvcfZwqEut-80" value="ID_Aposta" style="ellipse;whiteSpace=wrap;html=1;align=center;fontStyle=4;" vertex="1" parent="1">
          <mxGeometry x="320" y="460" width="100" height="40" as="geometry" />
        </mxCell>
        <mxCell id="XZEMBFw_VbSvcfZwqEut-82" value="ID_Wallet" style="ellipse;whiteSpace=wrap;html=1;align=center;fontStyle=4;" vertex="1" parent="1">
          <mxGeometry x="320" y="520" width="100" height="40" as="geometry" />
        </mxCell>
        <mxCell id="XZEMBFw_VbSvcfZwqEut-83" value="ID_Usuario" style="ellipse;whiteSpace=wrap;html=1;align=center;fontStyle=4;" vertex="1" parent="1">
          <mxGeometry x="330" y="580" width="100" height="40" as="geometry" />
        </mxCell>
        <mxCell id="XZEMBFw_VbSvcfZwqEut-84" value="" style="endArrow=none;html=1;rounded=0;exitX=1;exitY=0.5;exitDx=0;exitDy=0;" edge="1" parent="1" source="XZEMBFw_VbSvcfZwqEut-80">
          <mxGeometry relative="1" as="geometry">
            <mxPoint x="330" y="480" as="sourcePoint" />
            <mxPoint x="470" y="480" as="targetPoint" />
          </mxGeometry>
        </mxCell>
        <mxCell id="XZEMBFw_VbSvcfZwqEut-85" value="" style="endArrow=none;html=1;rounded=0;exitX=0.92;exitY=0.225;exitDx=0;exitDy=0;exitPerimeter=0;" edge="1" parent="1" source="XZEMBFw_VbSvcfZwqEut-82">
          <mxGeometry relative="1" as="geometry">
            <mxPoint x="440" y="500" as="sourcePoint" />
            <mxPoint x="480" y="490" as="targetPoint" />
          </mxGeometry>
        </mxCell>
        <mxCell id="XZEMBFw_VbSvcfZwqEut-86" value="" style="endArrow=none;html=1;rounded=0;exitX=0.79;exitY=0.15;exitDx=0;exitDy=0;exitPerimeter=0;" edge="1" parent="1" source="XZEMBFw_VbSvcfZwqEut-83">
          <mxGeometry relative="1" as="geometry">
            <mxPoint x="432" y="549" as="sourcePoint" />
            <mxPoint x="490" y="500" as="targetPoint" />
          </mxGeometry>
        </mxCell>
        <mxCell id="XZEMBFw_VbSvcfZwqEut-87" value="Valor_apostado" style="ellipse;whiteSpace=wrap;html=1;align=center;" vertex="1" parent="1">
          <mxGeometry x="440" y="585" width="100" height="40" as="geometry" />
        </mxCell>
        <mxCell id="XZEMBFw_VbSvcfZwqEut-88" value="" style="endArrow=none;html=1;rounded=0;exitX=0.41;exitY=-0.05;exitDx=0;exitDy=0;exitPerimeter=0;entryX=0.5;entryY=1;entryDx=0;entryDy=0;" edge="1" parent="1" source="XZEMBFw_VbSvcfZwqEut-87" target="XZEMBFw_VbSvcfZwqEut-79">
          <mxGeometry relative="1" as="geometry">
            <mxPoint x="459" y="601" as="sourcePoint" />
            <mxPoint x="500" y="510" as="targetPoint" />
          </mxGeometry>
        </mxCell>
        <mxCell id="XZEMBFw_VbSvcfZwqEut-89" value="Tipo_aposta" style="ellipse;whiteSpace=wrap;html=1;align=center;" vertex="1" parent="1">
          <mxGeometry x="540" y="580" width="100" height="40" as="geometry" />
        </mxCell>
        <mxCell id="XZEMBFw_VbSvcfZwqEut-90" value="" style="endArrow=none;html=1;rounded=0;entryX=0.42;entryY=-0.025;entryDx=0;entryDy=0;entryPerimeter=0;exitX=0.75;exitY=1;exitDx=0;exitDy=0;" edge="1" parent="1" source="XZEMBFw_VbSvcfZwqEut-79" target="XZEMBFw_VbSvcfZwqEut-89">
          <mxGeometry relative="1" as="geometry">
            <mxPoint x="330" y="480" as="sourcePoint" />
            <mxPoint x="490" y="480" as="targetPoint" />
          </mxGeometry>
        </mxCell>
        <mxCell id="XZEMBFw_VbSvcfZwqEut-91" value="Data_hora_aposta" style="ellipse;whiteSpace=wrap;html=1;align=center;" vertex="1" parent="1">
          <mxGeometry x="650" y="570" width="100" height="40" as="geometry" />
        </mxCell>
        <mxCell id="XZEMBFw_VbSvcfZwqEut-92" value="" style="endArrow=none;html=1;rounded=0;exitX=1;exitY=0.75;exitDx=0;exitDy=0;" edge="1" parent="1" source="XZEMBFw_VbSvcfZwqEut-79" target="XZEMBFw_VbSvcfZwqEut-91">
          <mxGeometry relative="1" as="geometry">
            <mxPoint x="555" y="510" as="sourcePoint" />
            <mxPoint x="622" y="569" as="targetPoint" />
          </mxGeometry>
        </mxCell>
        <mxCell id="XZEMBFw_VbSvcfZwqEut-93" value="" style="endArrow=none;html=1;rounded=0;exitX=1;exitY=1;exitDx=0;exitDy=0;" edge="1" parent="1" source="XZEMBFw_VbSvcfZwqEut-1" target="XZEMBFw_VbSvcfZwqEut-95">
          <mxGeometry relative="1" as="geometry">
            <mxPoint x="330" y="380" as="sourcePoint" />
            <mxPoint x="810" y="300" as="targetPoint" />
          </mxGeometry>
        </mxCell>
        <mxCell id="XZEMBFw_VbSvcfZwqEut-94" value="1" style="resizable=0;html=1;whiteSpace=wrap;align=right;verticalAlign=bottom;" connectable="0" vertex="1" parent="XZEMBFw_VbSvcfZwqEut-93">
          <mxGeometry x="1" relative="1" as="geometry">
            <mxPoint x="-11" y="-19" as="offset" />
          </mxGeometry>
        </mxCell>
        <mxCell id="XZEMBFw_VbSvcfZwqEut-95" value="Cria" style="shape=rhombus;double=1;perimeter=rhombusPerimeter;whiteSpace=wrap;html=1;align=center;" vertex="1" parent="1">
          <mxGeometry x="810" y="180" width="120" height="60" as="geometry" />
        </mxCell>
        <mxCell id="XZEMBFw_VbSvcfZwqEut-100" value="" style="shape=link;html=1;rounded=0;entryX=1;entryY=0.5;entryDx=0;entryDy=0;exitX=0.1;exitY=0;exitDx=0;exitDy=0;exitPerimeter=0;" edge="1" parent="1" source="XZEMBFw_VbSvcfZwqEut-102" target="XZEMBFw_VbSvcfZwqEut-95">
          <mxGeometry relative="1" as="geometry">
            <mxPoint x="930" y="470" as="sourcePoint" />
            <mxPoint x="700" y="380" as="targetPoint" />
          </mxGeometry>
        </mxCell>
        <mxCell id="XZEMBFw_VbSvcfZwqEut-101" value="N" style="resizable=0;html=1;whiteSpace=wrap;align=right;verticalAlign=bottom;" connectable="0" vertex="1" parent="XZEMBFw_VbSvcfZwqEut-100">
          <mxGeometry x="1" relative="1" as="geometry">
            <mxPoint y="20" as="offset" />
          </mxGeometry>
        </mxCell>
        <mxCell id="XZEMBFw_VbSvcfZwqEut-102" value="Evento" style="shape=ext;margin=3;double=1;whiteSpace=wrap;html=1;align=center;" vertex="1" parent="1">
          <mxGeometry x="1090" y="230" width="100" height="40" as="geometry" />
        </mxCell>
        <mxCell id="XZEMBFw_VbSvcfZwqEut-107" value="Token_sessao" style="ellipse;whiteSpace=wrap;html=1;align=center;" vertex="1" parent="1">
          <mxGeometry x="640" y="110" width="100" height="40" as="geometry" />
        </mxCell>
        <mxCell id="XZEMBFw_VbSvcfZwqEut-108" value="" style="endArrow=none;html=1;rounded=0;entryX=1;entryY=0.75;entryDx=0;entryDy=0;" edge="1" parent="1" source="XZEMBFw_VbSvcfZwqEut-107" target="XZEMBFw_VbSvcfZwqEut-1">
          <mxGeometry relative="1" as="geometry">
            <mxPoint x="660" y="90" as="sourcePoint" />
            <mxPoint x="600" y="120" as="targetPoint" />
          </mxGeometry>
        </mxCell>
        <mxCell id="XZEMBFw_VbSvcfZwqEut-123" value="" style="endArrow=none;html=1;rounded=0;exitX=0;exitY=0.5;exitDx=0;exitDy=0;entryX=1;entryY=0.5;entryDx=0;entryDy=0;" edge="1" parent="1" source="XZEMBFw_VbSvcfZwqEut-102" target="XZEMBFw_VbSvcfZwqEut-125">
          <mxGeometry relative="1" as="geometry">
            <mxPoint x="540" y="480" as="sourcePoint" />
            <mxPoint x="790" y="480" as="targetPoint" />
          </mxGeometry>
        </mxCell>
        <mxCell id="XZEMBFw_VbSvcfZwqEut-124" value="1" style="resizable=0;html=1;whiteSpace=wrap;align=right;verticalAlign=bottom;" connectable="0" vertex="1" parent="XZEMBFw_VbSvcfZwqEut-123">
          <mxGeometry x="1" relative="1" as="geometry" />
        </mxCell>
        <mxCell id="XZEMBFw_VbSvcfZwqEut-125" value="Possui" style="shape=rhombus;double=1;perimeter=rhombusPerimeter;whiteSpace=wrap;html=1;align=center;" vertex="1" parent="1">
          <mxGeometry x="690" y="450" width="120" height="60" as="geometry" />
        </mxCell>
        <mxCell id="XZEMBFw_VbSvcfZwqEut-126" value="" style="shape=link;html=1;rounded=0;" edge="1" parent="1">
          <mxGeometry relative="1" as="geometry">
            <mxPoint x="570" y="480" as="sourcePoint" />
            <mxPoint x="690" y="480" as="targetPoint" />
          </mxGeometry>
        </mxCell>
        <mxCell id="XZEMBFw_VbSvcfZwqEut-127" value="N" style="resizable=0;html=1;whiteSpace=wrap;align=right;verticalAlign=bottom;" connectable="0" vertex="1" parent="XZEMBFw_VbSvcfZwqEut-126">
          <mxGeometry x="1" relative="1" as="geometry" />
        </mxCell>
        <mxCell id="XZEMBFw_VbSvcfZwqEut-128" value="Moderador" style="whiteSpace=wrap;html=1;align=center;" vertex="1" parent="1">
          <mxGeometry x="760" y="310" width="100" height="40" as="geometry" />
        </mxCell>
        <mxCell id="XZEMBFw_VbSvcfZwqEut-129" value="" style="endArrow=none;html=1;rounded=0;exitX=0.5;exitY=1;exitDx=0;exitDy=0;" edge="1" parent="1" source="XZEMBFw_VbSvcfZwqEut-128">
          <mxGeometry relative="1" as="geometry">
            <mxPoint x="910" y="480" as="sourcePoint" />
            <mxPoint x="940" y="490" as="targetPoint" />
          </mxGeometry>
        </mxCell>
        <mxCell id="XZEMBFw_VbSvcfZwqEut-130" value="1" style="resizable=0;html=1;whiteSpace=wrap;align=right;verticalAlign=bottom;" connectable="0" vertex="1" parent="XZEMBFw_VbSvcfZwqEut-129">
          <mxGeometry x="1" relative="1" as="geometry">
            <mxPoint x="-10" as="offset" />
          </mxGeometry>
        </mxCell>
        <mxCell id="XZEMBFw_VbSvcfZwqEut-131" value="Realiza" style="shape=rhombus;double=1;perimeter=rhombusPerimeter;whiteSpace=wrap;html=1;align=center;" vertex="1" parent="1">
          <mxGeometry x="880" y="490" width="120" height="60" as="geometry" />
        </mxCell>
        <mxCell id="XZEMBFw_VbSvcfZwqEut-132" value="" style="shape=link;html=1;rounded=0;exitX=0.5;exitY=1;exitDx=0;exitDy=0;" edge="1" parent="1" source="XZEMBFw_VbSvcfZwqEut-131">
          <mxGeometry relative="1" as="geometry">
            <mxPoint x="910" y="580" as="sourcePoint" />
            <mxPoint x="970" y="660" as="targetPoint" />
          </mxGeometry>
        </mxCell>
        <mxCell id="XZEMBFw_VbSvcfZwqEut-133" value="N" style="resizable=0;html=1;whiteSpace=wrap;align=right;verticalAlign=bottom;" connectable="0" vertex="1" parent="XZEMBFw_VbSvcfZwqEut-132">
          <mxGeometry x="1" relative="1" as="geometry">
            <mxPoint x="-40" y="-90" as="offset" />
          </mxGeometry>
        </mxCell>
        <mxCell id="XZEMBFw_VbSvcfZwqEut-134" value="Avaliaçao_evento" style="shape=ext;margin=3;double=1;whiteSpace=wrap;html=1;align=center;" vertex="1" parent="1">
          <mxGeometry x="930" y="660" width="110" height="40" as="geometry" />
        </mxCell>
        <mxCell id="XZEMBFw_VbSvcfZwqEut-135" value="" style="endArrow=none;html=1;rounded=0;exitX=0.43;exitY=1.025;exitDx=0;exitDy=0;exitPerimeter=0;" edge="1" parent="1" source="XZEMBFw_VbSvcfZwqEut-102">
          <mxGeometry relative="1" as="geometry">
            <mxPoint x="910" y="580" as="sourcePoint" />
            <mxPoint x="1120" y="430" as="targetPoint" />
          </mxGeometry>
        </mxCell>
        <mxCell id="XZEMBFw_VbSvcfZwqEut-136" value="1" style="resizable=0;html=1;whiteSpace=wrap;align=right;verticalAlign=bottom;" connectable="0" vertex="1" parent="XZEMBFw_VbSvcfZwqEut-135">
          <mxGeometry x="1" relative="1" as="geometry" />
        </mxCell>
        <mxCell id="XZEMBFw_VbSvcfZwqEut-137" value="Avaliado_por" style="shape=rhombus;double=1;perimeter=rhombusPerimeter;whiteSpace=wrap;html=1;align=center;" vertex="1" parent="1">
          <mxGeometry x="1060" y="430" width="120" height="60" as="geometry" />
        </mxCell>
        <mxCell id="XZEMBFw_VbSvcfZwqEut-138" value="" style="shape=link;html=1;rounded=0;entryX=0.5;entryY=1;entryDx=0;entryDy=0;exitX=0.927;exitY=0.05;exitDx=0;exitDy=0;exitPerimeter=0;" edge="1" parent="1" source="XZEMBFw_VbSvcfZwqEut-134" target="XZEMBFw_VbSvcfZwqEut-137">
          <mxGeometry relative="1" as="geometry">
            <mxPoint x="910" y="580" as="sourcePoint" />
            <mxPoint x="1070" y="580" as="targetPoint" />
          </mxGeometry>
        </mxCell>
        <mxCell id="XZEMBFw_VbSvcfZwqEut-139" value="1" style="resizable=0;html=1;whiteSpace=wrap;align=right;verticalAlign=bottom;" connectable="0" vertex="1" parent="XZEMBFw_VbSvcfZwqEut-138">
          <mxGeometry x="1" relative="1" as="geometry">
            <mxPoint x="-10" y="20" as="offset" />
          </mxGeometry>
        </mxCell>
        <mxCell id="XZEMBFw_VbSvcfZwqEut-141" value="" style="endArrow=none;html=1;rounded=0;exitX=0.89;exitY=1;exitDx=0;exitDy=0;exitPerimeter=0;" edge="1" parent="1" source="XZEMBFw_VbSvcfZwqEut-102">
          <mxGeometry relative="1" as="geometry">
            <mxPoint x="910" y="480" as="sourcePoint" />
            <mxPoint x="1400" y="430" as="targetPoint" />
          </mxGeometry>
        </mxCell>
        <mxCell id="XZEMBFw_VbSvcfZwqEut-142" value="1" style="resizable=0;html=1;whiteSpace=wrap;align=right;verticalAlign=bottom;" connectable="0" vertex="1" parent="XZEMBFw_VbSvcfZwqEut-141">
          <mxGeometry x="1" relative="1" as="geometry" />
        </mxCell>
        <mxCell id="XZEMBFw_VbSvcfZwqEut-143" value="Pertence" style="shape=rhombus;double=1;perimeter=rhombusPerimeter;whiteSpace=wrap;html=1;align=center;" vertex="1" parent="1">
          <mxGeometry x="1340" y="430" width="120" height="60" as="geometry" />
        </mxCell>
        <mxCell id="XZEMBFw_VbSvcfZwqEut-144" value="" style="shape=link;html=1;rounded=0;entryX=0.5;entryY=1;entryDx=0;entryDy=0;" edge="1" parent="1" target="XZEMBFw_VbSvcfZwqEut-143">
          <mxGeometry relative="1" as="geometry">
            <mxPoint x="1450" y="660" as="sourcePoint" />
            <mxPoint x="1200" y="580" as="targetPoint" />
          </mxGeometry>
        </mxCell>
        <mxCell id="XZEMBFw_VbSvcfZwqEut-146" value="N" style="resizable=0;html=1;whiteSpace=wrap;align=right;verticalAlign=bottom;" connectable="0" vertex="1" parent="XZEMBFw_VbSvcfZwqEut-144">
          <mxGeometry x="1" relative="1" as="geometry">
            <mxPoint x="-10" y="20" as="offset" />
          </mxGeometry>
        </mxCell>
        <mxCell id="XZEMBFw_VbSvcfZwqEut-147" value="Evento_categoria" style="shape=ext;margin=3;double=1;whiteSpace=wrap;html=1;align=center;" vertex="1" parent="1">
          <mxGeometry x="1390" y="660" width="110" height="40" as="geometry" />
        </mxCell>
        <mxCell id="XZEMBFw_VbSvcfZwqEut-148" value="Categoria" style="whiteSpace=wrap;html=1;align=center;" vertex="1" parent="1">
          <mxGeometry x="980" y="920" width="100" height="40" as="geometry" />
        </mxCell>
        <mxCell id="XZEMBFw_VbSvcfZwqEut-149" value="" style="endArrow=none;html=1;rounded=0;exitX=0.92;exitY=-0.05;exitDx=0;exitDy=0;exitPerimeter=0;" edge="1" parent="1" source="XZEMBFw_VbSvcfZwqEut-148">
          <mxGeometry relative="1" as="geometry">
            <mxPoint x="1040" y="680" as="sourcePoint" />
            <mxPoint x="1240" y="790" as="targetPoint" />
          </mxGeometry>
        </mxCell>
        <mxCell id="XZEMBFw_VbSvcfZwqEut-150" value="1" style="resizable=0;html=1;whiteSpace=wrap;align=right;verticalAlign=bottom;" connectable="0" vertex="1" parent="XZEMBFw_VbSvcfZwqEut-149">
          <mxGeometry x="1" relative="1" as="geometry">
            <mxPoint x="-40" y="-10" as="offset" />
          </mxGeometry>
        </mxCell>
        <mxCell id="XZEMBFw_VbSvcfZwqEut-152" value="Classifica" style="shape=rhombus;double=1;perimeter=rhombusPerimeter;whiteSpace=wrap;html=1;align=center;" vertex="1" parent="1">
          <mxGeometry x="1210" y="760" width="120" height="60" as="geometry" />
        </mxCell>
        <mxCell id="XZEMBFw_VbSvcfZwqEut-153" value="" style="shape=link;html=1;rounded=0;exitX=0.942;exitY=0.45;exitDx=0;exitDy=0;exitPerimeter=0;entryX=0.5;entryY=1;entryDx=0;entryDy=0;" edge="1" parent="1" source="XZEMBFw_VbSvcfZwqEut-152" target="XZEMBFw_VbSvcfZwqEut-147">
          <mxGeometry relative="1" as="geometry">
            <mxPoint x="1330" y="789" as="sourcePoint" />
            <mxPoint x="1490" y="789" as="targetPoint" />
          </mxGeometry>
        </mxCell>
        <mxCell id="XZEMBFw_VbSvcfZwqEut-154" value="N" style="resizable=0;html=1;whiteSpace=wrap;align=right;verticalAlign=bottom;" connectable="0" vertex="1" parent="XZEMBFw_VbSvcfZwqEut-153">
          <mxGeometry x="1" relative="1" as="geometry">
            <mxPoint x="-35" y="20" as="offset" />
          </mxGeometry>
        </mxCell>
        <mxCell id="XZEMBFw_VbSvcfZwqEut-155" value="ID_Moderador" style="ellipse;whiteSpace=wrap;html=1;align=center;fontStyle=4;" vertex="1" parent="1">
          <mxGeometry x="670" y="230" width="100" height="40" as="geometry" />
        </mxCell>
        <mxCell id="XZEMBFw_VbSvcfZwqEut-156" value="Email" style="ellipse;whiteSpace=wrap;html=1;align=center;" vertex="1" parent="1">
          <mxGeometry x="640" y="290" width="100" height="40" as="geometry" />
        </mxCell>
        <mxCell id="XZEMBFw_VbSvcfZwqEut-157" value="Nome" style="ellipse;whiteSpace=wrap;html=1;align=center;" vertex="1" parent="1">
          <mxGeometry x="630" y="340" width="100" height="40" as="geometry" />
        </mxCell>
        <mxCell id="XZEMBFw_VbSvcfZwqEut-159" value="" style="endArrow=none;html=1;rounded=0;exitX=0.78;exitY=1;exitDx=0;exitDy=0;exitPerimeter=0;entryX=0.5;entryY=0;entryDx=0;entryDy=0;" edge="1" parent="1" source="XZEMBFw_VbSvcfZwqEut-155" target="XZEMBFw_VbSvcfZwqEut-128">
          <mxGeometry relative="1" as="geometry">
            <mxPoint x="710" y="380" as="sourcePoint" />
            <mxPoint x="870" y="380" as="targetPoint" />
          </mxGeometry>
        </mxCell>
        <mxCell id="XZEMBFw_VbSvcfZwqEut-160" value="" style="endArrow=none;html=1;rounded=0;" edge="1" parent="1" source="XZEMBFw_VbSvcfZwqEut-156" target="XZEMBFw_VbSvcfZwqEut-128">
          <mxGeometry relative="1" as="geometry">
            <mxPoint x="758" y="280" as="sourcePoint" />
            <mxPoint x="820" y="320" as="targetPoint" />
          </mxGeometry>
        </mxCell>
        <mxCell id="XZEMBFw_VbSvcfZwqEut-161" value="" style="endArrow=none;html=1;rounded=0;exitX=1;exitY=0.5;exitDx=0;exitDy=0;" edge="1" parent="1" source="XZEMBFw_VbSvcfZwqEut-157" target="XZEMBFw_VbSvcfZwqEut-128">
          <mxGeometry relative="1" as="geometry">
            <mxPoint x="747" y="327" as="sourcePoint" />
            <mxPoint x="770" y="332" as="targetPoint" />
          </mxGeometry>
        </mxCell>
        <mxCell id="XZEMBFw_VbSvcfZwqEut-163" value="ID_Usuario" style="ellipse;whiteSpace=wrap;html=1;align=center;fontStyle=4;" vertex="1" parent="1">
          <mxGeometry x="1090" y="70" width="100" height="40" as="geometry" />
        </mxCell>
        <mxCell id="XZEMBFw_VbSvcfZwqEut-164" value="ID_Evento" style="ellipse;whiteSpace=wrap;html=1;align=center;fontStyle=4;" vertex="1" parent="1">
          <mxGeometry x="1200" y="70" width="100" height="40" as="geometry" />
        </mxCell>
        <mxCell id="XZEMBFw_VbSvcfZwqEut-165" value="TItulo" style="ellipse;whiteSpace=wrap;html=1;align=center;" vertex="1" parent="1">
          <mxGeometry x="980" y="80" width="100" height="40" as="geometry" />
        </mxCell>
        <mxCell id="XZEMBFw_VbSvcfZwqEut-166" value="Descriçao" style="ellipse;whiteSpace=wrap;html=1;align=center;" vertex="1" parent="1">
          <mxGeometry x="970" y="140" width="100" height="40" as="geometry" />
        </mxCell>
        <mxCell id="XZEMBFw_VbSvcfZwqEut-167" value="Data_ini" style="ellipse;whiteSpace=wrap;html=1;align=center;" vertex="1" parent="1">
          <mxGeometry x="1260" y="210" width="100" height="40" as="geometry" />
        </mxCell>
        <mxCell id="XZEMBFw_VbSvcfZwqEut-168" value="Data_fim" style="ellipse;whiteSpace=wrap;html=1;align=center;" vertex="1" parent="1">
          <mxGeometry x="1270" y="160" width="100" height="40" as="geometry" />
        </mxCell>
        <mxCell id="XZEMBFw_VbSvcfZwqEut-169" value="Data_acontece" style="ellipse;whiteSpace=wrap;html=1;align=center;" vertex="1" parent="1">
          <mxGeometry x="1260" y="110" width="100" height="40" as="geometry" />
        </mxCell>
        <mxCell id="XZEMBFw_VbSvcfZwqEut-170" value="Status" style="ellipse;whiteSpace=wrap;html=1;align=center;" vertex="1" parent="1">
          <mxGeometry x="1240" y="270" width="100" height="40" as="geometry" />
        </mxCell>
        <mxCell id="XZEMBFw_VbSvcfZwqEut-171" value="" style="endArrow=none;html=1;rounded=0;exitX=0.5;exitY=1;exitDx=0;exitDy=0;" edge="1" parent="1" source="XZEMBFw_VbSvcfZwqEut-166" target="XZEMBFw_VbSvcfZwqEut-102">
          <mxGeometry relative="1" as="geometry">
            <mxPoint x="758" y="280" as="sourcePoint" />
            <mxPoint x="820" y="320" as="targetPoint" />
          </mxGeometry>
        </mxCell>
        <mxCell id="XZEMBFw_VbSvcfZwqEut-172" value="" style="endArrow=none;html=1;rounded=0;exitX=1;exitY=1;exitDx=0;exitDy=0;" edge="1" parent="1" source="XZEMBFw_VbSvcfZwqEut-165">
          <mxGeometry relative="1" as="geometry">
            <mxPoint x="1030" y="190" as="sourcePoint" />
            <mxPoint x="1110" y="230" as="targetPoint" />
          </mxGeometry>
        </mxCell>
        <mxCell id="XZEMBFw_VbSvcfZwqEut-173" value="" style="endArrow=none;html=1;rounded=0;exitX=0.44;exitY=1;exitDx=0;exitDy=0;exitPerimeter=0;entryX=0.44;entryY=0.05;entryDx=0;entryDy=0;entryPerimeter=0;" edge="1" parent="1" source="XZEMBFw_VbSvcfZwqEut-163" target="XZEMBFw_VbSvcfZwqEut-102">
          <mxGeometry relative="1" as="geometry">
            <mxPoint x="1075" y="124" as="sourcePoint" />
            <mxPoint x="1126" y="250" as="targetPoint" />
          </mxGeometry>
        </mxCell>
        <mxCell id="XZEMBFw_VbSvcfZwqEut-174" value="" style="endArrow=none;html=1;rounded=0;exitX=0.27;exitY=0.85;exitDx=0;exitDy=0;exitPerimeter=0;entryX=0.63;entryY=0.025;entryDx=0;entryDy=0;entryPerimeter=0;" edge="1" parent="1" source="XZEMBFw_VbSvcfZwqEut-164" target="XZEMBFw_VbSvcfZwqEut-102">
          <mxGeometry relative="1" as="geometry">
            <mxPoint x="1144" y="120" as="sourcePoint" />
            <mxPoint x="1144" y="242" as="targetPoint" />
          </mxGeometry>
        </mxCell>
        <mxCell id="XZEMBFw_VbSvcfZwqEut-175" value="" style="endArrow=none;html=1;rounded=0;exitX=0;exitY=0.725;exitDx=0;exitDy=0;exitPerimeter=0;entryX=0.94;entryY=0.075;entryDx=0;entryDy=0;entryPerimeter=0;" edge="1" parent="1" source="XZEMBFw_VbSvcfZwqEut-169" target="XZEMBFw_VbSvcfZwqEut-102">
          <mxGeometry relative="1" as="geometry">
            <mxPoint x="1237" y="114" as="sourcePoint" />
            <mxPoint x="1163" y="241" as="targetPoint" />
          </mxGeometry>
        </mxCell>
        <mxCell id="XZEMBFw_VbSvcfZwqEut-176" value="" style="endArrow=none;html=1;rounded=0;exitX=0;exitY=0.5;exitDx=0;exitDy=0;entryX=0.94;entryY=0.075;entryDx=0;entryDy=0;entryPerimeter=0;" edge="1" parent="1" source="XZEMBFw_VbSvcfZwqEut-168">
          <mxGeometry relative="1" as="geometry">
            <mxPoint x="1270" y="149" as="sourcePoint" />
            <mxPoint x="1194" y="243" as="targetPoint" />
          </mxGeometry>
        </mxCell>
        <mxCell id="XZEMBFw_VbSvcfZwqEut-177" value="" style="endArrow=none;html=1;rounded=0;entryX=1;entryY=0.5;entryDx=0;entryDy=0;" edge="1" parent="1" source="XZEMBFw_VbSvcfZwqEut-167" target="XZEMBFw_VbSvcfZwqEut-102">
          <mxGeometry relative="1" as="geometry">
            <mxPoint x="1280" y="190" as="sourcePoint" />
            <mxPoint x="1204" y="253" as="targetPoint" />
          </mxGeometry>
        </mxCell>
        <mxCell id="XZEMBFw_VbSvcfZwqEut-178" value="" style="endArrow=none;html=1;rounded=0;entryX=1;entryY=0.75;entryDx=0;entryDy=0;exitX=0.29;exitY=0.075;exitDx=0;exitDy=0;exitPerimeter=0;" edge="1" parent="1" source="XZEMBFw_VbSvcfZwqEut-170" target="XZEMBFw_VbSvcfZwqEut-102">
          <mxGeometry relative="1" as="geometry">
            <mxPoint x="1274" y="248" as="sourcePoint" />
            <mxPoint x="1200" y="260" as="targetPoint" />
          </mxGeometry>
        </mxCell>
        <mxCell id="XZEMBFw_VbSvcfZwqEut-179" value="ID_Categoria" style="ellipse;whiteSpace=wrap;html=1;align=center;fontStyle=4;" vertex="1" parent="1">
          <mxGeometry x="840" y="890" width="100" height="40" as="geometry" />
        </mxCell>
        <mxCell id="XZEMBFw_VbSvcfZwqEut-180" value="Nome" style="ellipse;whiteSpace=wrap;html=1;align=center;" vertex="1" parent="1">
          <mxGeometry x="840" y="950" width="100" height="40" as="geometry" />
        </mxCell>
        <mxCell id="XZEMBFw_VbSvcfZwqEut-181" value="" style="endArrow=none;html=1;rounded=0;exitX=1;exitY=0.5;exitDx=0;exitDy=0;" edge="1" parent="1" source="XZEMBFw_VbSvcfZwqEut-179" target="XZEMBFw_VbSvcfZwqEut-148">
          <mxGeometry relative="1" as="geometry">
            <mxPoint x="580" y="500" as="sourcePoint" />
            <mxPoint x="687" y="582" as="targetPoint" />
          </mxGeometry>
        </mxCell>
        <mxCell id="XZEMBFw_VbSvcfZwqEut-182" value="" style="endArrow=none;html=1;rounded=0;" edge="1" parent="1" source="XZEMBFw_VbSvcfZwqEut-180" target="XZEMBFw_VbSvcfZwqEut-148">
          <mxGeometry relative="1" as="geometry">
            <mxPoint x="950" y="920" as="sourcePoint" />
            <mxPoint x="990" y="933" as="targetPoint" />
          </mxGeometry>
        </mxCell>
        <mxCell id="XZEMBFw_VbSvcfZwqEut-183" value="ID_Moderador" style="ellipse;whiteSpace=wrap;html=1;align=center;fontStyle=4;" vertex="1" parent="1">
          <mxGeometry x="780" y="630" width="100" height="40" as="geometry" />
        </mxCell>
        <mxCell id="XZEMBFw_VbSvcfZwqEut-184" value="ID_Evento" style="ellipse;whiteSpace=wrap;html=1;align=center;fontStyle=4;" vertex="1" parent="1">
          <mxGeometry x="780" y="690" width="100" height="40" as="geometry" />
        </mxCell>
        <mxCell id="XZEMBFw_VbSvcfZwqEut-185" value="ID_Avaliçao" style="ellipse;whiteSpace=wrap;html=1;align=center;fontStyle=4;" vertex="1" parent="1">
          <mxGeometry x="780" y="740" width="100" height="40" as="geometry" />
        </mxCell>
        <mxCell id="XZEMBFw_VbSvcfZwqEut-186" value="Status" style="ellipse;whiteSpace=wrap;html=1;align=center;" vertex="1" parent="1">
          <mxGeometry x="890" y="760" width="100" height="40" as="geometry" />
        </mxCell>
        <mxCell id="XZEMBFw_VbSvcfZwqEut-187" value="Motivo_rep" style="ellipse;whiteSpace=wrap;html=1;align=center;" vertex="1" parent="1">
          <mxGeometry x="1010" y="750" width="100" height="40" as="geometry" />
        </mxCell>
        <mxCell id="XZEMBFw_VbSvcfZwqEut-188" value="" style="endArrow=none;html=1;rounded=0;exitX=0;exitY=0.5;exitDx=0;exitDy=0;entryX=0.93;entryY=0.725;entryDx=0;entryDy=0;entryPerimeter=0;" edge="1" parent="1" source="XZEMBFw_VbSvcfZwqEut-134" target="XZEMBFw_VbSvcfZwqEut-183">
          <mxGeometry relative="1" as="geometry">
            <mxPoint x="580" y="500" as="sourcePoint" />
            <mxPoint x="687" y="582" as="targetPoint" />
          </mxGeometry>
        </mxCell>
        <mxCell id="XZEMBFw_VbSvcfZwqEut-189" value="" style="endArrow=none;html=1;rounded=0;exitX=0;exitY=0.5;exitDx=0;exitDy=0;entryX=0.96;entryY=0.325;entryDx=0;entryDy=0;entryPerimeter=0;" edge="1" parent="1" target="XZEMBFw_VbSvcfZwqEut-184">
          <mxGeometry relative="1" as="geometry">
            <mxPoint x="940" y="690" as="sourcePoint" />
            <mxPoint x="883" y="669" as="targetPoint" />
          </mxGeometry>
        </mxCell>
        <mxCell id="XZEMBFw_VbSvcfZwqEut-190" value="" style="endArrow=none;html=1;rounded=0;exitX=0;exitY=0.5;exitDx=0;exitDy=0;entryX=1;entryY=0.25;entryDx=0;entryDy=0;entryPerimeter=0;" edge="1" parent="1" target="XZEMBFw_VbSvcfZwqEut-185">
          <mxGeometry relative="1" as="geometry">
            <mxPoint x="950" y="700" as="sourcePoint" />
            <mxPoint x="886" y="713" as="targetPoint" />
          </mxGeometry>
        </mxCell>
        <mxCell id="XZEMBFw_VbSvcfZwqEut-191" value="" style="endArrow=none;html=1;rounded=0;exitX=0.591;exitY=1;exitDx=0;exitDy=0;exitPerimeter=0;" edge="1" parent="1" source="XZEMBFw_VbSvcfZwqEut-134" target="XZEMBFw_VbSvcfZwqEut-187">
          <mxGeometry relative="1" as="geometry">
            <mxPoint x="960" y="710" as="sourcePoint" />
            <mxPoint x="890" y="760" as="targetPoint" />
          </mxGeometry>
        </mxCell>
        <mxCell id="XZEMBFw_VbSvcfZwqEut-192" value="" style="endArrow=none;html=1;rounded=0;exitX=0.373;exitY=1.025;exitDx=0;exitDy=0;exitPerimeter=0;entryX=0.73;entryY=0;entryDx=0;entryDy=0;entryPerimeter=0;" edge="1" parent="1" source="XZEMBFw_VbSvcfZwqEut-134" target="XZEMBFw_VbSvcfZwqEut-186">
          <mxGeometry relative="1" as="geometry">
            <mxPoint x="1005" y="710" as="sourcePoint" />
            <mxPoint x="1053" y="761" as="targetPoint" />
          </mxGeometry>
        </mxCell>
        <mxCell id="XZEMBFw_VbSvcfZwqEut-193" value="ID_Evento" style="ellipse;whiteSpace=wrap;html=1;align=center;fontStyle=4;" vertex="1" parent="1">
          <mxGeometry x="1450" y="760" width="100" height="40" as="geometry" />
        </mxCell>
        <mxCell id="XZEMBFw_VbSvcfZwqEut-194" value="ID_Categoria" style="ellipse;whiteSpace=wrap;html=1;align=center;fontStyle=4;" vertex="1" parent="1">
          <mxGeometry x="1520" y="700" width="100" height="40" as="geometry" />
        </mxCell>
        <mxCell id="XZEMBFw_VbSvcfZwqEut-195" value="" style="endArrow=none;html=1;rounded=0;exitX=0.682;exitY=1;exitDx=0;exitDy=0;exitPerimeter=0;entryX=0.24;entryY=0.1;entryDx=0;entryDy=0;entryPerimeter=0;" edge="1" parent="1" source="XZEMBFw_VbSvcfZwqEut-147" target="XZEMBFw_VbSvcfZwqEut-193">
          <mxGeometry relative="1" as="geometry">
            <mxPoint x="1005" y="710" as="sourcePoint" />
            <mxPoint x="1053" y="761" as="targetPoint" />
          </mxGeometry>
        </mxCell>
        <mxCell id="XZEMBFw_VbSvcfZwqEut-196" value="" style="endArrow=none;html=1;rounded=0;exitX=0.945;exitY=0.975;exitDx=0;exitDy=0;exitPerimeter=0;entryX=0;entryY=0.5;entryDx=0;entryDy=0;" edge="1" parent="1" source="XZEMBFw_VbSvcfZwqEut-147" target="XZEMBFw_VbSvcfZwqEut-194">
          <mxGeometry relative="1" as="geometry">
            <mxPoint x="1475" y="710" as="sourcePoint" />
            <mxPoint x="1484" y="774" as="targetPoint" />
          </mxGeometry>
        </mxCell>
      </root>
    </mxGraphModel>
  </diagram>
</mxfile>
